<svg width="1000" height="1000" viewBox="0 0 1000 1000" fill="none" xmlns="http://www.w3.org/2000/svg">
<g clip-path="url(#clip0_8207_28122)">
<mask id="mask0_8207_28122" style="mask-type:luminance" maskUnits="userSpaceOnUse" x="0" y="0" width="1000" height="1000">
<path d="M1000 0H0V1000H1000V0Z" fill="white"/>
</mask>
<g mask="url(#mask0_8207_28122)">
<mask id="mask1_8207_28122" style="mask-type:luminance" maskUnits="userSpaceOnUse" x="220" y="-47" width="561" height="689">
<path d="M780.878 -47H220V641.288H780.878V-47Z" fill="white"/>
</mask>
<g mask="url(#mask1_8207_28122)">
<path d="M2941.26 924.486C2969.08 1507.66 3022.55 2089.29 3215.57 2643.92L3209.55 2626.02C3268.27 2780.3 3310.46 2940.75 3335.19 3103.97C3359.92 3266.89 3367.49 3432.74 3356.67 3597.2C3350.64 3689.61 3338.28 3781.72 3316.8 3871.81L3317.73 3868.88C3299.95 4000.79 3237.67 4124.37 3148.96 4222.95C3060.26 4321.54 2936.93 4398.83 2807.58 4444.03C2676.67 4489.85 2509.3 4525.34 2377.48 4465.17C2317.82 4437.86 2267.6 4377.08 2289.54 4308.42C2310.25 4243.78 2374.08 4208.29 2418.12 4161.39C2520.74 4052.17 2438.37 3899.12 2333.59 3825.53C2320.45 3816.27 2306.54 3807.94 2292.17 3800.54L2301.29 3798.38C2285.21 3822.44 2264.82 3843.74 2241.94 3861.32C2161.43 3923.34 2046.6 3943.56 1952.33 3902.05C1909.05 4006.96 1832.09 4095.67 1740.44 4161.86C1650.35 4226.96 1545.87 4270.16 1438.47 4297.47C1324.72 4326.47 1200.31 4346.53 1083.48 4328.48C1037.42 4321.38 987.663 4307.03 955.514 4271.24C920.588 4232.21 919.507 4175.28 940.37 4129.31C983.953 4033.35 1102.49 3975.64 1201.39 3959.13H1200.62C1218.4 3955.12 1235.55 3948.49 1251.47 3939.54C1259.97 3934.76 1268.16 3929.05 1274.18 3921.34C1280.21 3913.62 1283.77 3903.59 1282.07 3894.03C1280.21 3883.69 1272.64 3875.36 1265.22 3867.96C1253.01 3855.62 1240.5 3843.74 1227.51 3832.32L1225.66 3831.39C1018.88 3628.98 925.999 3336.47 885.969 3050.13C838.681 2711.34 855.526 2363.59 935.423 2030.97L923.682 2059.2C941.915 1999.5 953.969 1938.1 955.514 1875.61C956.75 1824.55 951.036 1770.08 917.342 1729.2C881.951 1686.47 829.1 1661.78 780.726 1637.41C729.264 1611.49 676.872 1586.03 631.28 1550.55C434.702 1397.81 374.429 1122.58 345.066 889.773C334.836 808.666 325.716 727.374 319.604 645.876C314.543 578.397 311.544 510.77 311.684 442.987L292.83 435.274C212.931 353.659 227.767 213.111 313.848 142.298C403.174 68.862 554.628 68.399 628.347 164.977C664.045 211.723 675.635 271.583 683.364 328.357C692.48 395.777 698.82 463.196 716.129 529.225C748.582 654.039 817.662 775.302 937.745 833.618C1057.82 892.091 1199.54 879.747 1315.91 818.65C1330.59 810.937 1344.97 802.453 1358.88 793.349C1358.88 793.349 1651.27 990.52 2007.97 1038.34C2625.06 1121.19 2941.41 924.486 2941.41 924.486H2941.26Z" fill="#FDFBC8"/>
<path d="M537.634 423.496C537.634 423.496 526.05 379.175 470.059 384.956C414.068 392.664 419.86 450.477 419.86 450.477C419.86 450.477 385.107 463.963 392.83 492.871C400.552 521.775 423.721 529.484 448.821 523.702C475.851 517.92 500.95 477.454 500.95 477.454C500.95 477.454 510.604 460.109 537.634 477.454C564.664 494.798 605.209 492.871 605.209 460.109C605.209 454.327 611.001 415.788 537.634 423.496Z" fill="#FFB229"/>
<path d="M271.798 432.958C280.762 442.984 290.343 452.395 300.543 461.036C303.479 463.504 307.652 464.739 311.361 464.895C315.07 465.046 319.552 463.812 322.334 461.499C324.807 459.338 327.125 456.406 326.97 452.859C326.816 449.312 325.27 446.38 322.643 444.067C314.916 437.739 307.652 430.797 300.852 423.547L303.17 426.016C301.625 424.318 300.08 422.62 298.534 420.922C297.452 419.381 296.216 418.302 294.67 417.375C293.125 416.297 291.425 415.526 289.416 415.063C285.707 414.136 280.916 414.443 277.516 416.141C274.425 417.683 271.334 420 270.252 423.391C269.325 426.479 269.325 430.333 271.643 432.802L271.798 432.958Z" fill="black"/>
<path d="M641.775 222.672C649.967 262.938 653.521 316.01 619.059 345.631C588.611 371.859 542.094 368.31 516.748 336.529C498.512 313.696 497.276 283.149 498.203 255.07C498.667 238.871 467.913 238.254 467.294 254.453C466.212 285.155 468.53 317.399 486.303 343.471C500.367 364.145 522.776 378.801 546.885 384.664C603.138 398.394 660.785 363.836 673.768 307.371C680.719 277.286 677.63 246.431 671.602 216.346C668.513 201.227 638.221 205.393 641.618 222.363L641.775 222.672Z" fill="black"/>
<path d="M360.043 290.718C354.788 326.819 362.361 367.702 391.261 392.541C418.306 415.99 462.042 422.006 491.096 398.867C507.478 385.907 517.06 366.314 521.696 346.258C523.396 338.698 518.45 332.836 511.187 330.984C505.005 329.441 493.723 331.601 492.023 339.161C488.16 355.669 481.205 373.719 466.369 383.439C454.005 391.461 440.096 390.536 427.269 384.519C392.342 368.474 386.006 325.276 390.952 291.18C392.033 283.466 381.988 278.838 375.806 278.684C368.079 278.684 361.279 282.849 360.197 290.564L360.043 290.718Z" fill="black"/>
<path d="M283.687 443.452C311.196 471.685 355.705 484.024 390.941 462.889C420.923 444.838 423.859 409.201 418.295 378.036C416.905 370.477 405.778 367.854 399.441 369.089C391.868 370.631 387.077 376.34 388.314 383.899C390.014 393.464 390.786 409.047 388.623 418.15C388.005 420.77 387.232 423.395 386.305 425.864C385.687 427.25 385.068 428.796 384.45 430.182C383.369 432.343 384.141 430.953 383.059 432.499C379.35 438.051 377.496 440.056 371.932 443.603C362.505 449.623 350.605 450.546 339.787 447.77C327.423 444.686 315.678 436.661 305.787 426.479C300.533 421.082 289.56 421.697 283.997 426.015C277.66 430.953 278.587 438.051 283.687 443.296V443.452Z" fill="black"/>
<path d="M2925.79 924.175C2947.58 1378.52 2984.82 1834.72 3092.39 2277.81C3122.68 2402.47 3158.53 2525.73 3200.57 2646.84C3205.67 2661.5 3235.96 2657.18 3230.55 2640.82L3224.52 2622.93L3194.54 2628.94C3309.68 2932.72 3361.45 3259.94 3341.97 3584.24C3336.26 3679.89 3323.89 3774.93 3301.95 3868.11C3298.09 3884.77 3326.52 3890.02 3331.62 3875.2L3332.55 3872.27L3302.26 3868.42C3282.32 4009.89 3211.85 4141.18 3111.24 4242.08C3010.48 4343.29 2880.97 4411.01 2744.5 4450.97C2674.5 4471.49 2601.4 4485.99 2528.14 4484.45C2462.15 4483.06 2386.43 4469.17 2337.13 4421.81C2313.33 4398.98 2297.25 4367.2 2299.73 4333.72C2302.2 4300.24 2322.29 4271.08 2344.86 4247.48C2386.58 4203.66 2441.29 4171.88 2466.33 4114.33C2522.74 3985.05 2408.22 3846.97 2299.88 3789.73L2295.71 3811.95L2304.83 3809.79L2287.67 3791.43C2216.89 3893.87 2076.26 3940.62 1959.89 3891.09C1952 3887.7 1940.72 3889.09 1937.01 3898.04C1852.94 4098.44 1659.45 4223.1 1456.07 4279.26C1345.88 4309.65 1229.04 4330.94 1114.53 4319.68C1064.77 4314.74 1006.81 4304.71 970.648 4267.07C934.486 4229.42 935.102 4176.05 954.884 4132.23C997.23 4038.12 1108.66 3987.06 1205.09 3970.39C1222.86 3967.31 1217.15 3947.25 1201.38 3946.33H1200.61C1201.85 3954.35 1203.08 3962.37 1204.32 3970.39C1250.22 3959.13 1331.04 3920.1 1281.74 3864.87C1262.42 3843.27 1239.4 3825.84 1219.46 3805.16C1197.05 3782.02 1176.19 3757.49 1156.57 3732.19C1077.44 3629.9 1020.25 3512.49 979.149 3390.31C889.201 3122.94 865.401 2830.74 877.768 2550.26C885.491 2376.24 909.756 2203.29 950.094 2033.74C954.112 2016.93 926.449 2012.3 920.422 2026.65L908.676 2054.88L938.347 2061.97C957.822 1997.18 971.113 1929.76 970.956 1861.72C970.8 1806.49 959.366 1752.03 920.266 1710.99C881.165 1669.95 825.528 1644.96 774.378 1619.2C715.187 1589.42 657.54 1558.1 608.395 1512.9C446.124 1363.25 392.651 1129.21 364.06 919.082C342.579 761.258 326.661 601.887 326.661 442.521C326.661 437.891 323.416 433.573 319.242 431.875C313.834 429.714 305.952 428.016 301.161 424.469C291.116 417.063 281.997 399.168 276.125 388.368C262.834 363.375 256.034 334.988 255.261 306.755C253.87 251.06 275.816 193.978 317.388 156.18C397.906 83.2062 541.632 78.8861 612.413 167.905C657.697 224.988 664.032 302.281 672.997 371.86C681.957 441.438 691.85 512.868 715.187 580.288C754.131 693.223 827.385 797.824 939.12 847.964C1079.91 911.217 1242.33 883.447 1368.91 801.371L1347.12 800.908C1409.71 843.026 1477.71 878.046 1546.02 909.827C1695.92 979.716 1855.1 1030.47 2019.38 1051.45C2286.74 1085.7 2569.72 1079.53 2826.11 988.663C2868.91 973.544 2912.8 956.575 2951.6 932.508C2967.98 922.326 2943.25 906.587 2930.11 914.764C2926.72 916.925 2932.74 913.374 2926.56 916.769C2920.38 920.165 2914.51 923.249 2908.48 926.337C2885.61 937.904 2861.96 947.935 2838.01 957.19C2747.91 991.903 2653.02 1013.96 2557.66 1027.85C2237.45 1074.44 1900.85 1037.42 1603.97 907.822C1524.07 872.958 1440 831.454 1369.37 784.09C1362.57 779.461 1354.53 779.153 1347.58 783.627C1222.09 864.932 1055.34 888.228 922.275 810.163C853.227 769.586 804.049 706.465 770.208 635.186C746.403 585.056 730.188 530.888 719.977 477.697C695.248 348.873 709.932 179.938 581.659 106.039C488.623 52.3503 357.106 73.1779 283.543 150.626C240.58 195.829 219.253 261.089 225.744 322.8C228.834 352.267 237.798 380.5 252.789 405.956C266.234 428.636 279.525 442.672 303.325 452.395L295.907 441.75C295.907 506.352 298.678 570.831 303.325 635.186C309.032 714.22 317.569 793.066 327.279 871.723C340.415 977.554 357.415 1083.39 388.015 1185.83C418.614 1288.27 462.042 1385.62 528.805 1468.16C563.887 1511.66 605.149 1550.24 651.978 1580.93C704.985 1615.5 762.94 1640.8 818.577 1670.57C848.864 1686.77 878.848 1705.44 901.412 1731.66C923.976 1757.89 935.102 1792.61 938.504 1827.32C946.075 1903.69 930.619 1981.9 908.676 2054.72C903.729 2071.39 932.476 2076.02 938.347 2061.82L950.094 2033.59L920.422 2026.49C852.266 2312.21 829.238 2608.12 853.811 2900.94C874.982 3153.03 926.449 3411.44 1055.03 3632.68C1089.49 3692.08 1129.83 3748.23 1176.04 3799.14C1196.59 3821.83 1218.85 3841.57 1240.79 3862.71C1255.16 3876.59 1275.87 3893.56 1260.73 3914.23C1247.44 3932.59 1217.45 3941.39 1196.43 3946.48C1179.28 3950.65 1183.76 3969.62 1200.14 3970.55H1200.92C1199.68 3962.53 1198.44 3954.5 1197.21 3946.48C1102.17 3962.99 1000.01 4008.96 944.374 4091.04C917.949 4129.92 903.729 4176.97 914.547 4223.57C926.293 4274.17 968.639 4307.18 1015.62 4324C1129.67 4364.88 1264.9 4347.6 1380.34 4323.07C1495.79 4298.54 1616.49 4257.97 1719.42 4191.32C1822.34 4124.67 1916.77 4023.62 1966.53 3904.82L1943.66 3911.77C2073.63 3967 2233.58 3920.1 2313.79 3804.08C2321.52 3792.97 2307.15 3783.41 2296.64 3785.72L2287.52 3787.88C2275.78 3790.66 2271.76 3804.08 2283.35 3810.1C2391.53 3867.18 2507.59 4019.46 2417.03 4138.71C2377.93 4190.24 2316.42 4220.33 2284.89 4278.49C2253.36 4336.65 2270.06 4397.28 2316.57 4440.33C2365.41 4485.68 2437.27 4502.5 2502.03 4507.28C2575.44 4512.68 2649.77 4501.27 2720.71 4482.75C2860.88 4446.34 2995.18 4383.24 3103.67 4286.05C3224.98 4177.44 3309.52 4030.1 3332.39 3868.42C3334.4 3853.61 3306.43 3851.91 3302.1 3864.56L3301.18 3867.49L3330.85 3874.59C3406.57 3552.76 3386.02 3204.56 3306.27 2885.51C3284.02 2796.18 3256.36 2708.4 3223.6 2622.47C3218.18 2608.12 3188.2 2612.13 3193.61 2628.49L3199.64 2646.38L3229.62 2640.37C3080.8 2211.01 3013.72 1759.59 2979.1 1308.02C2969.37 1180.28 2961.95 1052.22 2955.77 924.175C2954.99 907.978 2924.09 907.514 2924.86 923.561L2925.79 924.175Z" fill="black"/>
</g>
<path d="M480.345 733.637C471.206 677.433 480.32 649.064 480.32 649.064L582.745 649C582.745 649 565.153 730.233 592.576 751.694C620.001 773.156 670.341 813.251 672.124 827.456C704.212 886.208 641.807 932.58 604.026 901.946C566.249 871.312 562.776 808.461 559.302 880.077C557.366 920.003 506.596 935 480.325 935C420.011 925.223 420.006 880.26 420 827.808V827.456C433.749 786.313 489.485 789.836 480.345 733.637Z" fill="white" stroke="black" stroke-width="27" stroke-linecap="round"/>
<path d="M317 641L763 649" stroke="black" stroke-width="26" stroke-linecap="round"/>
<path d="M426.138 823.049C418.478 841.358 408.274 899.384 462.901 919.171C513.444 937.48 530.414 921.46 534.243 893.997V877.976M515.742 710.907C520.337 774.988 541.017 765.834 524.933 788.72M586.972 672V720.061C590.037 739.894 603.975 780.481 635.224 784.143C674.286 788.72 692.667 907.728 667.392 905.44M541.017 807.029C553.884 858.294 518.806 886.366 499.658 893.997C479.744 904.675 450.027 924.664 490.467 919.171C530.907 913.679 522.635 904.675 513.444 900.862" stroke="#FF0000" stroke-width="17" stroke-linecap="round"/>
</g>
</g>
<defs>
<clipPath id="clip0_8207_28122">
<rect width="1000" height="1000" fill="white"/>
</clipPath>
</defs>
</svg>
