<svg width="1000" height="1000" viewBox="0 0 1000 1000" fill="none" xmlns="http://www.w3.org/2000/svg">
<rect width="1000" height="1000" fill="white"/>
<mask id="mask0_1012_28533" style="mask-type:luminance" maskUnits="userSpaceOnUse" x="243" y="82" width="443" height="543">
<path d="M685.637 82H243.484V624.593H685.637V82Z" fill="white"/>
</mask>
<g mask="url(#mask0_1012_28533)">
<path d="M2388.71 847.844C2410.64 1307.57 2452.8 1766.08 2604.96 2203.31L2600.21 2189.2C2646.51 2310.82 2679.76 2437.31 2699.26 2565.98C2718.75 2694.41 2724.72 2825.16 2716.19 2954.8C2711.44 3027.66 2701.69 3100.26 2684.76 3171.29L2685.49 3168.98C2671.48 3272.96 2622.38 3370.38 2552.45 3448.1C2482.52 3525.81 2385.3 3586.74 2283.33 3622.38C2180.14 3658.5 2048.19 3686.48 1944.27 3639.04C1897.24 3617.52 1857.65 3569.6 1874.95 3515.48C1891.28 3464.52 1941.59 3436.54 1976.31 3399.57C2057.21 3313.46 1992.28 3192.81 1909.67 3134.8C1899.32 3127.5 1888.35 3120.94 1877.02 3115.1L1884.21 3113.4C1871.54 3132.37 1855.46 3149.15 1837.43 3163.02C1773.95 3211.91 1683.43 3227.84 1609.12 3195.13C1575 3277.83 1514.33 3347.76 1442.08 3399.94C1371.06 3451.26 1288.7 3485.31 1204.03 3506.84C1114.36 3529.71 1016.29 3545.52 924.182 3531.29C887.879 3525.69 848.65 3514.38 823.306 3486.16C795.773 3455.4 794.921 3410.52 811.368 3374.28C845.725 3298.63 939.168 3253.14 1017.14 3240.12H1016.53C1030.54 3236.96 1044.06 3231.73 1056.61 3224.68C1063.32 3220.91 1069.77 3216.41 1074.52 3210.33C1079.27 3204.25 1082.08 3196.34 1080.74 3188.8C1079.27 3180.65 1073.3 3174.09 1067.46 3168.25C1057.83 3158.52 1047.96 3149.15 1037.73 3140.15L1036.27 3139.42C873.259 2979.86 800.039 2749.27 768.483 2523.54C731.204 2256.46 744.483 1982.32 807.468 1720.11L798.212 1742.37C812.586 1695.3 822.088 1646.89 823.306 1597.64C824.281 1557.38 819.776 1514.45 793.214 1482.22C765.315 1448.53 723.651 1429.07 685.517 1409.85C644.948 1389.42 603.647 1369.36 567.705 1341.38C412.739 1220.98 365.224 1004.01 342.077 820.479C334.012 756.54 326.823 692.456 322.004 628.21C318.015 575.014 315.651 521.703 315.761 468.268L300.898 462.187C237.911 397.848 249.607 287.051 317.467 231.228C387.885 173.336 507.279 172.971 565.393 249.106C593.535 285.957 602.672 333.146 608.764 377.902C615.951 431.051 620.949 484.199 634.594 536.251C660.177 634.645 714.634 730.239 809.299 776.211C903.959 822.306 1015.68 812.576 1107.42 764.411C1118.99 758.331 1130.32 751.643 1141.29 744.466C1141.29 744.466 1371.79 899.901 1652.98 937.6C2139.45 1002.91 2388.83 847.844 2388.83 847.844H2388.71Z" fill="#FDFBC8"/>
<path d="M493.882 452.902C493.882 452.902 484.75 417.962 440.611 422.52C396.472 428.596 401.038 474.172 401.038 474.172C401.038 474.172 373.642 484.803 379.73 507.592C385.818 530.377 404.082 536.454 423.869 531.896C445.177 527.339 464.964 495.438 464.964 495.438C464.964 495.438 472.574 481.764 493.882 495.438C515.191 509.111 547.153 507.592 547.153 481.764C547.153 477.207 551.719 446.825 493.882 452.902Z" fill="#FFB229"/>
<path d="M284.318 460.361C291.384 468.265 298.938 475.684 306.978 482.495C309.293 484.441 312.582 485.414 315.506 485.537C318.43 485.657 321.964 484.684 324.156 482.86C326.106 481.157 327.933 478.845 327.811 476.049C327.689 473.253 326.471 470.941 324.4 469.118C318.309 464.13 312.582 458.657 307.222 452.942L309.049 454.888C307.831 453.55 306.613 452.211 305.394 450.873C304.542 449.657 303.567 448.807 302.349 448.077C301.13 447.227 299.79 446.619 298.207 446.254C295.283 445.523 291.506 445.765 288.825 447.104C286.389 448.319 283.952 450.146 283.099 452.819C282.368 455.253 282.368 458.292 284.196 460.238L284.318 460.361Z" fill="black"/>
<path d="M575.98 294.588C582.438 326.331 585.239 368.169 558.072 391.52C534.069 412.196 497.399 409.398 477.419 384.344C463.042 366.345 462.068 342.264 462.799 320.129C463.164 307.358 438.92 306.872 438.433 319.642C437.58 343.845 439.407 369.264 453.418 389.817C464.504 406.115 482.17 417.669 501.176 422.29C545.522 433.114 590.966 405.871 601.2 361.358C606.68 337.642 604.245 313.318 599.493 289.602C597.058 277.683 573.178 280.967 575.856 294.345L575.98 294.588Z" fill="black"/>
<path d="M353.884 348.229C349.741 376.688 355.711 408.918 378.494 428.499C399.814 446.984 434.292 451.726 457.196 433.485C470.11 423.269 477.664 407.823 481.319 392.012C482.659 386.053 478.76 381.431 473.034 379.972C468.161 378.756 459.267 380.458 457.927 386.418C454.881 399.431 449.399 413.661 437.703 421.323C427.957 427.647 416.992 426.918 406.88 422.174C379.346 409.526 374.351 375.472 378.25 348.594C379.103 342.513 371.184 338.864 366.31 338.743C360.219 338.743 354.858 342.026 354.006 348.107L353.884 348.229Z" fill="black"/>
<path d="M293.69 468.633C315.377 490.891 350.464 500.617 378.241 483.956C401.876 469.726 404.191 441.632 399.805 417.065C398.709 411.106 389.937 409.038 384.942 410.011C378.972 411.227 375.195 415.727 376.17 421.687C377.51 429.227 378.119 441.511 376.414 448.688C375.926 450.753 375.317 452.822 374.586 454.768C374.099 455.861 373.611 457.08 373.124 458.172C372.271 459.876 372.88 458.78 372.028 459.999C369.104 464.376 367.642 465.957 363.256 468.753C355.824 473.499 346.443 474.226 337.915 472.037C328.169 469.606 318.909 463.28 311.112 455.253C306.97 450.999 298.32 451.484 293.934 454.888C288.939 458.78 289.67 464.376 293.69 468.51V468.633Z" fill="black"/>
<path d="M2376.52 847.598C2393.7 1205.77 2423.06 1565.41 2507.85 1914.7C2531.73 2012.97 2559.99 2110.14 2593.13 2205.62C2597.15 2217.17 2621.03 2213.76 2616.77 2200.87L2612.01 2186.76L2588.38 2191.51C2679.15 2430.98 2719.96 2688.94 2704.61 2944.59C2700.1 3019.99 2690.35 3094.91 2673.05 3168.36C2670.01 3181.5 2692.42 3185.64 2696.44 3173.96L2697.18 3171.65L2673.3 3168.61C2657.58 3280.14 2602.03 3383.64 2522.71 3463.17C2443.28 3542.96 2341.18 3596.35 2233.61 3627.85C2178.42 3644.02 2120.79 3655.46 2063.04 3654.24C2011.02 3653.15 1951.33 3642.2 1912.46 3604.86C1893.7 3586.86 1881.03 3561.81 1882.98 3535.42C1884.93 3509.03 1900.77 3486.04 1918.56 3467.43C1951.45 3432.89 1994.58 3407.84 2014.31 3362.47C2058.78 3260.55 1968.5 3151.7 1883.1 3106.58L1879.81 3124.1L1887 3122.39L1873.48 3107.92C1817.68 3188.68 1706.81 3225.53 1615.08 3186.49C1608.86 3183.81 1599.97 3184.91 1597.04 3191.96C1530.77 3349.95 1378.24 3448.22 1217.91 3492.48C1131.04 3516.45 1038.94 3533.23 948.66 3524.35C909.432 3520.46 863.745 3512.55 835.237 3482.88C806.729 3453.2 807.215 3411.12 822.81 3376.58C856.192 3302.39 944.032 3262.14 1020.05 3249C1034.06 3246.57 1029.56 3230.76 1017.13 3230.03H1016.52C1017.49 3236.35 1018.47 3242.67 1019.44 3249C1055.63 3240.12 1119.35 3209.35 1080.48 3165.81C1065.25 3148.78 1047.1 3135.04 1031.38 3118.75C1013.72 3100.5 997.272 3081.16 981.8 3061.22C919.42 2980.58 874.342 2888.03 841.938 2791.71C771.031 2580.94 752.268 2350.59 762.017 2129.48C768.106 1992.29 787.235 1855.96 819.033 1722.29C822.201 1709.04 800.394 1705.39 795.643 1716.7L786.383 1738.96L809.774 1744.55C825.126 1693.47 835.603 1640.32 835.48 1586.69C835.357 1543.15 826.343 1500.21 795.52 1467.86C764.696 1435.51 720.836 1415.81 680.513 1395.5C633.851 1372.03 588.407 1347.34 549.664 1311.7C421.743 1193.73 379.589 1009.23 357.05 843.583C340.116 719.167 327.567 593.531 327.567 467.899C327.567 464.249 325.009 460.846 321.719 459.507C317.456 457.803 311.242 456.465 307.465 453.669C299.547 447.831 292.358 433.723 287.729 425.209C277.252 405.507 271.891 383.129 271.282 360.872C270.185 316.967 287.485 271.967 320.258 242.17C383.731 184.644 497.034 181.238 552.832 251.413C588.53 296.413 593.525 357.345 600.592 412.196C607.655 467.046 615.455 523.356 633.851 576.505C664.552 665.533 722.3 747.993 810.382 787.519C921.37 837.383 1049.41 815.491 1149.19 750.789L1132.02 750.424C1181.36 783.627 1234.96 811.234 1288.81 836.287C1406.99 891.382 1532.47 931.396 1661.98 947.935C1872.75 974.934 2095.82 970.072 2297.94 898.436C2331.68 886.517 2366.28 873.14 2396.86 854.167C2409.78 846.141 2390.29 833.733 2379.93 840.179C2377.25 841.883 2382 839.083 2377.13 841.76C2372.25 844.437 2367.62 846.868 2362.87 849.302C2344.84 858.421 2326.2 866.329 2307.32 873.625C2236.29 900.99 2161.49 918.381 2086.32 929.327C1833.88 966.057 1568.54 936.869 1334.5 834.706C1271.51 807.222 1205.24 774.504 1149.56 737.166C1144.2 733.516 1137.86 733.274 1132.38 736.801C1033.46 800.896 901.999 819.261 797.103 757.72C742.671 725.732 703.903 675.973 677.226 619.782C658.459 580.263 645.677 537.561 637.627 495.629C618.133 394.074 629.709 260.9 528.588 202.643C455.246 160.319 351.568 176.738 293.577 237.792C259.708 273.427 242.895 324.873 248.012 373.521C250.449 396.75 257.515 419.007 269.332 439.074C279.932 456.953 290.409 468.019 309.171 475.684L303.323 467.292C303.323 518.219 305.508 569.049 309.171 619.782C313.67 682.086 320.4 744.242 328.055 806.249C338.41 889.678 351.812 973.111 375.934 1053.87C400.057 1134.62 434.291 1211.37 486.922 1276.43C514.578 1310.73 547.106 1341.14 584.022 1365.34C625.809 1392.58 671.496 1412.53 715.356 1436C739.232 1448.77 762.869 1463.48 780.657 1484.16C798.444 1504.84 807.215 1532.2 809.897 1559.57C815.866 1619.77 803.681 1681.43 786.383 1738.84C782.483 1751.97 805.145 1755.62 809.774 1744.43L819.033 1722.17L795.643 1716.58C741.914 1941.82 723.76 2175.09 743.132 2405.92C759.821 2604.65 800.394 2808.37 901.756 2982.77C928.923 3029.6 960.722 3073.87 997.149 3114C1013.35 3131.88 1030.9 3147.45 1048.2 3164.11C1059.52 3175.06 1075.85 3188.43 1063.91 3204.73C1053.44 3219.2 1029.8 3226.14 1013.23 3230.15C999.707 3233.43 1003.24 3248.39 1016.15 3249.12H1016.76C1015.79 3242.8 1014.81 3236.47 1013.84 3230.15C938.915 3243.16 858.385 3279.4 814.525 3344.11C793.693 3374.76 782.483 3411.85 791.011 3448.58C800.271 3488.47 833.653 3514.5 870.689 3527.76C960.598 3559.99 1067.2 3546.36 1158.21 3527.03C1249.22 3507.69 1344.37 3475.7 1425.51 3423.16C1506.65 3370.62 1581.08 3290.96 1620.31 3197.31L1602.28 3202.78C1704.74 3246.32 1830.84 3209.35 1894.07 3117.89C1900.16 3109.14 1888.83 3101.6 1880.54 3103.42L1873.35 3105.12C1864.1 3107.31 1860.93 3117.89 1870.07 3122.64C1955.35 3167.64 2046.84 3287.68 1975.45 3381.69C1944.63 3422.31 1896.14 3446.03 1871.28 3491.88C1846.43 3537.73 1859.59 3585.52 1896.26 3619.46C1934.76 3655.22 1991.41 3668.47 2042.46 3672.24C2100.33 3676.5 2158.93 3667.5 2214.85 3652.9C2325.35 3624.2 2431.22 3574.46 2516.74 3497.84C2612.38 3412.22 2679.02 3296.07 2697.05 3168.61C2698.64 3156.93 2676.59 3155.6 2673.17 3165.57L2672.44 3167.88L2695.83 3173.48C2755.53 2919.77 2739.33 2645.28 2676.46 2393.76C2658.92 2323.35 2637.11 2254.14 2611.29 2186.4C2607.02 2175.09 2583.39 2178.25 2587.65 2191.14L2592.4 2205.25L2616.04 2200.51C2498.71 1862.04 2445.84 1506.18 2418.55 1150.19C2410.87 1049.49 2405.02 948.542 2400.15 847.598C2399.54 834.829 2375.18 834.464 2375.78 847.114L2376.52 847.598Z" fill="black"/>
</g>
<path d="M448.629 702.615C441.416 658.203 448.609 635.785 448.609 635.785L529.45 635.734C529.45 635.734 515.566 699.926 537.209 716.885C558.855 733.843 598.587 765.527 599.995 776.752C625.32 823.178 576.066 859.822 546.247 835.615C516.43 811.407 513.689 761.742 510.947 818.334C509.419 849.884 469.348 861.734 448.613 861.734C401.009 854.009 401.005 818.479 401 777.03V776.752C411.852 744.241 455.843 747.024 448.629 702.615Z" fill="white" stroke="black" stroke-width="22" stroke-linecap="round"/>
<path d="M323 624.734H664" stroke="black" stroke-width="26" stroke-linecap="round"/>
<path d="M413.834 765.797C407.802 780.229 399.764 825.966 442.791 841.564C482.601 855.995 495.967 843.368 498.983 821.72V809.092M484.411 677.402C488.03 727.913 504.318 720.697 491.65 738.737M540.514 646.734V684.618C542.929 700.251 553.907 732.243 578.52 735.129C609.287 738.737 623.765 832.544 603.857 830.74M504.318 753.169C514.453 793.578 486.824 815.705 471.742 821.72C456.057 830.137 432.65 845.893 464.503 841.564C496.355 837.234 489.84 830.137 482.601 827.132" stroke="#FF0000" stroke-width="17" stroke-linecap="round"/>
</svg>
